<svg width="38" height="39" viewBox="0 0 38 39" fill="none" xmlns="http://www.w3.org/2000/svg">
<g id="Innovation">
<path id="Vector" d="M19 0.85C8.71672 0.85 0.35 9.21672 0.35 19.5C0.35 29.7833 8.71672 38.15 19 38.15C29.2833 38.15 37.65 29.7833 37.65 19.5C37.65 9.21672 29.2833 0.85 19 0.85ZM19 37.0792C9.30713 37.0792 1.42083 29.1929 1.42083 19.5C1.42083 9.80713 9.30713 1.92083 19 1.92083C28.6929 1.92083 36.5792 9.80713 36.5792 19.5C36.5792 29.1929 28.6929 37.0792 19 37.0792Z" fill="white" stroke="white" stroke-width="0.3"/>
<g id="Vector_2">
<mask id="path-2-outside-1_2505_4034" maskUnits="userSpaceOnUse" x="6.5" y="6" width="24" height="28" fill="black">
<rect fill="white" x="6.5" y="6" width="24" height="28"/>
<path d="M18.7938 9.60625C18.909 9.60625 19.0194 9.56049 19.1009 9.47902C19.1824 9.39756 19.2281 9.28708 19.2281 9.17187V7.43437C19.2281 7.31917 19.1824 7.20869 19.1009 7.12723C19.0194 7.04576 18.909 7 18.7938 7C18.6785 7 18.5681 7.04576 18.4866 7.12723C18.4051 7.20869 18.3594 7.31917 18.3594 7.43437V9.17187C18.3594 9.28708 18.4051 9.39756 18.4866 9.47902C18.5681 9.56049 18.6785 9.60625 18.7938 9.60625ZM29.6531 17.8594H27.9156C27.8004 17.8594 27.6899 17.9051 27.6085 17.9866C27.527 18.0681 27.4813 18.1785 27.4813 18.2937C27.4813 18.409 27.527 18.5194 27.6085 18.6009C27.6899 18.6824 27.8004 18.7281 27.9156 18.7281H29.6531C29.7683 18.7281 29.8788 18.6824 29.9603 18.6009C30.0417 18.5194 30.0875 18.409 30.0875 18.2937C30.0875 18.1785 30.0417 18.0681 29.9603 17.9866C29.8788 17.9051 29.7683 17.8594 29.6531 17.8594ZM10.1063 18.2937C10.1063 18.1785 10.0605 18.0681 9.97902 17.9866C9.89756 17.9051 9.78708 17.8594 9.67188 17.8594H7.93438C7.81917 17.8594 7.70869 17.9051 7.62723 17.9866C7.54576 18.0681 7.5 18.1785 7.5 18.2937C7.5 18.409 7.54576 18.5194 7.62723 18.6009C7.70869 18.6824 7.81917 18.7281 7.93438 18.7281H9.67188C9.78708 18.7281 9.89756 18.6824 9.97902 18.6009C10.0605 18.5194 10.1063 18.409 10.1063 18.2937ZM22.1185 10.2674C22.1711 10.2895 22.2277 10.301 22.2848 10.3011C22.3419 10.3012 22.3985 10.29 22.4513 10.2681C22.504 10.2462 22.5519 10.2141 22.5922 10.1735C22.6324 10.133 22.6642 10.0849 22.6858 10.0319L23.3512 8.42649C23.3742 8.37358 23.3864 8.31662 23.3871 8.25895C23.3878 8.20128 23.377 8.14404 23.3553 8.09058C23.3337 8.03712 23.3016 7.98851 23.261 7.94758C23.2204 7.90665 23.172 7.87422 23.1187 7.85218C23.0654 7.83015 23.0082 7.81894 22.9506 7.81923C22.8929 7.81952 22.8358 7.83129 22.7828 7.85386C22.7297 7.87643 22.6816 7.90934 22.6414 7.95068C22.6012 7.99202 22.5696 8.04095 22.5485 8.09463L21.883 9.70007C21.839 9.80652 21.8391 9.92609 21.8833 10.0325C21.9274 10.1389 22.012 10.2233 22.1185 10.2674ZM28.9929 22.0485L27.3874 21.383C27.2814 21.3413 27.1633 21.343 27.0585 21.3875C26.9537 21.4321 26.8705 21.516 26.827 21.6213C26.7835 21.7266 26.7831 21.8447 26.8258 21.9503C26.8686 22.0559 26.9511 22.1404 27.0556 22.1857L28.661 22.8512C28.7137 22.8734 28.7702 22.8848 28.8273 22.8849C28.8845 22.8851 28.9411 22.8739 28.9938 22.852C29.0466 22.8301 29.0945 22.7979 29.1347 22.7574C29.175 22.7168 29.2068 22.6687 29.2283 22.6158C29.2723 22.5093 29.2722 22.3898 29.2281 22.2834C29.1839 22.177 29.0993 22.0925 28.9929 22.0485ZM8.59463 14.539L10.2001 15.2045C10.2527 15.2266 10.3093 15.2381 10.3664 15.2382C10.4235 15.2383 10.4801 15.2271 10.5329 15.2052C10.5857 15.1833 10.6336 15.1512 10.6738 15.1106C10.7141 15.0701 10.7459 15.022 10.7674 14.969C10.8114 14.8626 10.8113 14.743 10.7671 14.6366C10.723 14.5303 10.6384 14.4458 10.5319 14.4018L8.92649 13.7363C8.82049 13.6946 8.70236 13.6962 8.59754 13.7408C8.49272 13.7854 8.4096 13.8693 8.36609 13.9746C8.32257 14.0798 8.32214 14.198 8.36489 14.3035C8.40763 14.4091 8.49014 14.4937 8.59463 14.539ZM25.2442 12.2777C25.3595 12.2777 25.47 12.2321 25.5518 12.1508L26.7802 10.9224C26.8593 10.8405 26.9031 10.7308 26.9021 10.6169C26.9011 10.503 26.8554 10.394 26.7749 10.3135C26.6943 10.233 26.5854 10.1873 26.4715 10.1863C26.3576 10.1853 26.2479 10.2291 26.166 10.3082L24.9376 11.5366C24.877 11.5974 24.8358 11.6747 24.8191 11.7588C24.8024 11.8429 24.811 11.9301 24.8438 12.0094C24.8766 12.0886 24.9321 12.1564 25.0034 12.2041C25.0747 12.2519 25.1584 12.2775 25.2442 12.2777ZM12.0366 24.4367L10.8082 25.6651C10.7268 25.7467 10.681 25.8572 10.6811 25.9725C10.6812 26.0878 10.7271 26.1983 10.8086 26.2797C10.8902 26.3612 11.0008 26.4069 11.116 26.4068C11.2313 26.4067 11.3418 26.3609 11.4233 26.2793L12.6517 25.0509C12.7331 24.9693 12.7788 24.8587 12.7788 24.7435C12.7787 24.6282 12.7328 24.5177 12.6513 24.4362C12.5697 24.3548 12.4591 24.3091 12.3438 24.3092C12.2286 24.3092 12.1181 24.3551 12.0366 24.4367ZM25.5509 24.4367C25.469 24.3576 25.3592 24.3138 25.2453 24.3148C25.1315 24.3158 25.0225 24.3614 24.942 24.442C24.8614 24.5225 24.8158 24.6315 24.8148 24.7453C24.8138 24.8592 24.8576 24.969 24.9367 25.0509L26.1651 26.2793C26.2053 26.32 26.2532 26.3522 26.306 26.3743C26.3588 26.3963 26.4154 26.4076 26.4726 26.4076C26.5298 26.4076 26.5865 26.3963 26.6393 26.3743C26.692 26.3522 26.7399 26.32 26.7802 26.2793C26.8616 26.1978 26.9073 26.0874 26.9073 25.9722C26.9073 25.857 26.8616 25.7466 26.7802 25.6651L25.5509 24.4367ZM12.0366 12.1508C12.0768 12.1915 12.1247 12.2238 12.1775 12.2458C12.2303 12.2678 12.2869 12.2792 12.3442 12.2792C12.4014 12.2792 12.458 12.2678 12.5108 12.2458C12.5636 12.2238 12.6115 12.1915 12.6517 12.1508C12.7331 12.0694 12.7789 11.9589 12.7789 11.8437C12.7789 11.7285 12.7331 11.6181 12.6517 11.5366L11.4233 10.3082C11.3414 10.2291 11.2316 10.1853 11.1177 10.1863C11.0038 10.1873 10.8949 10.233 10.8144 10.3135C10.7338 10.394 10.6881 10.503 10.6872 10.6169C10.6862 10.7308 10.7299 10.8405 10.8091 10.9224L12.0366 12.1508ZM26.8201 14.969C26.8643 15.0753 26.9488 15.1598 27.0552 15.2039C27.1615 15.248 27.281 15.2482 27.3874 15.2045L28.9929 14.539C29.0974 14.4937 29.1799 14.4091 29.2226 14.3035C29.2654 14.198 29.2649 14.0798 29.2214 13.9746C29.1779 13.8693 29.0948 13.7854 28.99 13.7408C28.8851 13.6962 28.767 13.6946 28.661 13.7363L27.0556 14.4018C27.0028 14.4235 26.9548 14.4554 26.9144 14.4956C26.874 14.5359 26.8419 14.5838 26.82 14.6365C26.7982 14.6892 26.7869 14.7457 26.7869 14.8028C26.787 14.8598 26.7982 14.9163 26.8201 14.969ZM10.7674 21.6185C10.723 21.5123 10.6385 21.428 10.5322 21.3839C10.4259 21.3398 10.3066 21.3395 10.2001 21.383L8.59463 22.0485C8.49014 22.0938 8.40763 22.1784 8.36489 22.284C8.32214 22.3895 8.32257 22.5077 8.36609 22.6129C8.4096 22.7182 8.49272 22.8021 8.59754 22.8467C8.70236 22.8913 8.82049 22.8929 8.92649 22.8512L10.5319 22.1857C10.5847 22.164 10.6327 22.1321 10.6731 22.0918C10.7135 22.0516 10.7456 22.0037 10.7675 21.951C10.7893 21.8983 10.8006 21.8418 10.8006 21.7847C10.8005 21.7277 10.7893 21.6712 10.7674 21.6185ZM14.9018 10.0328C14.946 10.1391 15.0305 10.2235 15.1368 10.2677C15.2431 10.3118 15.3626 10.312 15.469 10.2682C15.5755 10.2242 15.6601 10.1397 15.7042 10.0333C15.7484 9.92696 15.7485 9.80739 15.7045 9.70094L15.039 8.09549C14.9937 7.991 14.9091 7.9085 14.8035 7.86575C14.698 7.82301 14.5798 7.82344 14.4746 7.86696C14.3693 7.91047 14.2854 7.99359 14.2408 8.09841C14.1962 8.20323 14.1946 8.32136 14.2363 8.42736L14.9018 10.0328ZM18.7938 10.475C14.483 10.475 10.975 13.983 10.975 18.2937C10.978 19.7485 11.3859 21.1738 12.1531 22.4099C12.9203 23.6459 14.0164 24.644 15.3188 25.2924V29.1531C15.3188 29.2683 15.3645 29.3788 15.446 29.4603C15.5274 29.5417 15.6379 29.5875 15.7531 29.5875H16.1875V30.8906C16.1875 31.0058 16.2333 31.1163 16.3147 31.1978C16.3962 31.2792 16.5067 31.325 16.6219 31.325H17.0563V32.6281C17.0563 32.7433 17.102 32.8538 17.1835 32.9353C17.2649 33.0167 17.3754 33.0625 17.4906 33.0625C17.6058 33.0625 17.7163 33.0167 17.7978 32.9353C17.8792 32.8538 17.925 32.7433 17.925 32.6281V31.325H19.6625V32.6281C19.6625 32.7433 19.7083 32.8538 19.7897 32.9353C19.8712 33.0167 19.9817 33.0625 20.0969 33.0625C20.2121 33.0625 20.3226 33.0167 20.404 32.9353C20.4855 32.8538 20.5313 32.7433 20.5313 32.6281V31.325H20.9656C21.0808 31.325 21.1913 31.2792 21.2728 31.1978C21.3542 31.1163 21.4 31.0058 21.4 30.8906V29.5875H21.8344C21.9496 29.5875 22.0601 29.5417 22.1415 29.4603C22.223 29.3788 22.2688 29.2683 22.2688 29.1531V25.2924C23.5711 24.644 24.6672 23.6459 25.4344 22.4099C26.2016 21.1738 26.6095 19.7485 26.6125 18.2937C26.6125 13.983 23.1045 10.475 18.7938 10.475ZM20.5313 30.4562H17.0563V29.5875H20.5313V30.4562ZM18.3316 25.0908L17.038 21.641C17.045 21.6115 17.0563 21.5837 17.0563 21.5516C17.0563 21.3788 17.1249 21.213 17.2471 21.0908C17.3693 20.9686 17.535 20.9 17.7078 20.9C17.8806 20.9 18.0463 20.9686 18.1685 21.0908C18.2907 21.213 18.3594 21.3788 18.3594 21.5516C18.3594 21.6668 18.4051 21.7773 18.4866 21.8587C18.5681 21.9402 18.6785 21.9859 18.7938 21.9859C18.909 21.9859 19.0194 21.9402 19.1009 21.8587C19.1824 21.7773 19.2281 21.6668 19.2281 21.5516C19.2281 21.3788 19.2968 21.213 19.419 21.0908C19.5412 20.9686 19.7069 20.9 19.8797 20.9C20.0525 20.9 20.2182 20.9686 20.3404 21.0908C20.4626 21.213 20.5313 21.3788 20.5313 21.5516C20.5313 21.5837 20.5425 21.6115 20.5495 21.641L19.2559 25.0908C19.2376 25.1397 19.2282 25.1915 19.2281 25.2437V28.7187H18.3594V25.2437C18.3594 25.1916 18.3498 25.1395 18.3316 25.0908ZM21.6545 24.6217C21.5785 24.6563 21.5141 24.7121 21.4689 24.7823C21.4238 24.8526 21.3999 24.9344 21.4 25.0179V28.7187H20.0969V25.3228L21.3722 21.9217C21.4016 21.8372 21.4035 21.7457 21.3774 21.6602C21.3878 21.6245 21.4 21.5898 21.4 21.5516C21.4 20.7132 20.718 20.0312 19.8797 20.0312C19.454 20.0312 19.07 20.2085 18.7938 20.4908C18.6526 20.3456 18.4838 20.2301 18.2973 20.1511C18.1108 20.0722 17.9103 20.0314 17.7078 20.0312C16.8695 20.0312 16.1875 20.7132 16.1875 21.5516C16.1875 21.5898 16.1997 21.6245 16.2092 21.6602C16.1836 21.7457 16.1854 21.8372 16.2144 21.9217L17.4898 25.3228V28.7187H16.1875V25.0179C16.1874 24.9344 16.1634 24.8527 16.1183 24.7825C16.0732 24.7123 16.0088 24.6565 15.933 24.6217C14.7161 24.0704 13.6836 23.1806 12.9586 22.0586C12.2335 20.9366 11.8465 19.6297 11.8438 18.2937C11.8438 14.4617 14.9617 11.3437 18.7938 11.3437C22.6258 11.3437 25.7438 14.4617 25.7438 18.2937C25.741 19.6297 25.354 20.9366 24.6289 22.0586C23.9039 23.1806 22.8714 24.0704 21.6545 24.6217Z"/>
</mask>
<path d="M18.7938 9.60625C18.909 9.60625 19.0194 9.56049 19.1009 9.47902C19.1824 9.39756 19.2281 9.28708 19.2281 9.17187V7.43437C19.2281 7.31917 19.1824 7.20869 19.1009 7.12723C19.0194 7.04576 18.909 7 18.7938 7C18.6785 7 18.5681 7.04576 18.4866 7.12723C18.4051 7.20869 18.3594 7.31917 18.3594 7.43437V9.17187C18.3594 9.28708 18.4051 9.39756 18.4866 9.47902C18.5681 9.56049 18.6785 9.60625 18.7938 9.60625ZM29.6531 17.8594H27.9156C27.8004 17.8594 27.6899 17.9051 27.6085 17.9866C27.527 18.0681 27.4813 18.1785 27.4813 18.2937C27.4813 18.409 27.527 18.5194 27.6085 18.6009C27.6899 18.6824 27.8004 18.7281 27.9156 18.7281H29.6531C29.7683 18.7281 29.8788 18.6824 29.9603 18.6009C30.0417 18.5194 30.0875 18.409 30.0875 18.2937C30.0875 18.1785 30.0417 18.0681 29.9603 17.9866C29.8788 17.9051 29.7683 17.8594 29.6531 17.8594ZM10.1063 18.2937C10.1063 18.1785 10.0605 18.0681 9.97902 17.9866C9.89756 17.9051 9.78708 17.8594 9.67188 17.8594H7.93438C7.81917 17.8594 7.70869 17.9051 7.62723 17.9866C7.54576 18.0681 7.5 18.1785 7.5 18.2937C7.5 18.409 7.54576 18.5194 7.62723 18.6009C7.70869 18.6824 7.81917 18.7281 7.93438 18.7281H9.67188C9.78708 18.7281 9.89756 18.6824 9.97902 18.6009C10.0605 18.5194 10.1063 18.409 10.1063 18.2937ZM22.1185 10.2674C22.1711 10.2895 22.2277 10.301 22.2848 10.3011C22.3419 10.3012 22.3985 10.29 22.4513 10.2681C22.504 10.2462 22.5519 10.2141 22.5922 10.1735C22.6324 10.133 22.6642 10.0849 22.6858 10.0319L23.3512 8.42649C23.3742 8.37358 23.3864 8.31662 23.3871 8.25895C23.3878 8.20128 23.377 8.14404 23.3553 8.09058C23.3337 8.03712 23.3016 7.98851 23.261 7.94758C23.2204 7.90665 23.172 7.87422 23.1187 7.85218C23.0654 7.83015 23.0082 7.81894 22.9506 7.81923C22.8929 7.81952 22.8358 7.83129 22.7828 7.85386C22.7297 7.87643 22.6816 7.90934 22.6414 7.95068C22.6012 7.99202 22.5696 8.04095 22.5485 8.09463L21.883 9.70007C21.839 9.80652 21.8391 9.92609 21.8833 10.0325C21.9274 10.1389 22.012 10.2233 22.1185 10.2674ZM28.9929 22.0485L27.3874 21.383C27.2814 21.3413 27.1633 21.343 27.0585 21.3875C26.9537 21.4321 26.8705 21.516 26.827 21.6213C26.7835 21.7266 26.7831 21.8447 26.8258 21.9503C26.8686 22.0559 26.9511 22.1404 27.0556 22.1857L28.661 22.8512C28.7137 22.8734 28.7702 22.8848 28.8273 22.8849C28.8845 22.8851 28.9411 22.8739 28.9938 22.852C29.0466 22.8301 29.0945 22.7979 29.1347 22.7574C29.175 22.7168 29.2068 22.6687 29.2283 22.6158C29.2723 22.5093 29.2722 22.3898 29.2281 22.2834C29.1839 22.177 29.0993 22.0925 28.9929 22.0485ZM8.59463 14.539L10.2001 15.2045C10.2527 15.2266 10.3093 15.2381 10.3664 15.2382C10.4235 15.2383 10.4801 15.2271 10.5329 15.2052C10.5857 15.1833 10.6336 15.1512 10.6738 15.1106C10.7141 15.0701 10.7459 15.022 10.7674 14.969C10.8114 14.8626 10.8113 14.743 10.7671 14.6366C10.723 14.5303 10.6384 14.4458 10.5319 14.4018L8.92649 13.7363C8.82049 13.6946 8.70236 13.6962 8.59754 13.7408C8.49272 13.7854 8.4096 13.8693 8.36609 13.9746C8.32257 14.0798 8.32214 14.198 8.36489 14.3035C8.40763 14.4091 8.49014 14.4937 8.59463 14.539ZM25.2442 12.2777C25.3595 12.2777 25.47 12.2321 25.5518 12.1508L26.7802 10.9224C26.8593 10.8405 26.9031 10.7308 26.9021 10.6169C26.9011 10.503 26.8554 10.394 26.7749 10.3135C26.6943 10.233 26.5854 10.1873 26.4715 10.1863C26.3576 10.1853 26.2479 10.2291 26.166 10.3082L24.9376 11.5366C24.877 11.5974 24.8358 11.6747 24.8191 11.7588C24.8024 11.8429 24.811 11.9301 24.8438 12.0094C24.8766 12.0886 24.9321 12.1564 25.0034 12.2041C25.0747 12.2519 25.1584 12.2775 25.2442 12.2777ZM12.0366 24.4367L10.8082 25.6651C10.7268 25.7467 10.681 25.8572 10.6811 25.9725C10.6812 26.0878 10.7271 26.1983 10.8086 26.2797C10.8902 26.3612 11.0008 26.4069 11.116 26.4068C11.2313 26.4067 11.3418 26.3609 11.4233 26.2793L12.6517 25.0509C12.7331 24.9693 12.7788 24.8587 12.7788 24.7435C12.7787 24.6282 12.7328 24.5177 12.6513 24.4362C12.5697 24.3548 12.4591 24.3091 12.3438 24.3092C12.2286 24.3092 12.1181 24.3551 12.0366 24.4367ZM25.5509 24.4367C25.469 24.3576 25.3592 24.3138 25.2453 24.3148C25.1315 24.3158 25.0225 24.3614 24.942 24.442C24.8614 24.5225 24.8158 24.6315 24.8148 24.7453C24.8138 24.8592 24.8576 24.969 24.9367 25.0509L26.1651 26.2793C26.2053 26.32 26.2532 26.3522 26.306 26.3743C26.3588 26.3963 26.4154 26.4076 26.4726 26.4076C26.5298 26.4076 26.5865 26.3963 26.6393 26.3743C26.692 26.3522 26.7399 26.32 26.7802 26.2793C26.8616 26.1978 26.9073 26.0874 26.9073 25.9722C26.9073 25.857 26.8616 25.7466 26.7802 25.6651L25.5509 24.4367ZM12.0366 12.1508C12.0768 12.1915 12.1247 12.2238 12.1775 12.2458C12.2303 12.2678 12.2869 12.2792 12.3442 12.2792C12.4014 12.2792 12.458 12.2678 12.5108 12.2458C12.5636 12.2238 12.6115 12.1915 12.6517 12.1508C12.7331 12.0694 12.7789 11.9589 12.7789 11.8437C12.7789 11.7285 12.7331 11.6181 12.6517 11.5366L11.4233 10.3082C11.3414 10.2291 11.2316 10.1853 11.1177 10.1863C11.0038 10.1873 10.8949 10.233 10.8144 10.3135C10.7338 10.394 10.6881 10.503 10.6872 10.6169C10.6862 10.7308 10.7299 10.8405 10.8091 10.9224L12.0366 12.1508ZM26.8201 14.969C26.8643 15.0753 26.9488 15.1598 27.0552 15.2039C27.1615 15.248 27.281 15.2482 27.3874 15.2045L28.9929 14.539C29.0974 14.4937 29.1799 14.4091 29.2226 14.3035C29.2654 14.198 29.2649 14.0798 29.2214 13.9746C29.1779 13.8693 29.0948 13.7854 28.99 13.7408C28.8851 13.6962 28.767 13.6946 28.661 13.7363L27.0556 14.4018C27.0028 14.4235 26.9548 14.4554 26.9144 14.4956C26.874 14.5359 26.8419 14.5838 26.82 14.6365C26.7982 14.6892 26.7869 14.7457 26.7869 14.8028C26.787 14.8598 26.7982 14.9163 26.8201 14.969ZM10.7674 21.6185C10.723 21.5123 10.6385 21.428 10.5322 21.3839C10.4259 21.3398 10.3066 21.3395 10.2001 21.383L8.59463 22.0485C8.49014 22.0938 8.40763 22.1784 8.36489 22.284C8.32214 22.3895 8.32257 22.5077 8.36609 22.6129C8.4096 22.7182 8.49272 22.8021 8.59754 22.8467C8.70236 22.8913 8.82049 22.8929 8.92649 22.8512L10.5319 22.1857C10.5847 22.164 10.6327 22.1321 10.6731 22.0918C10.7135 22.0516 10.7456 22.0037 10.7675 21.951C10.7893 21.8983 10.8006 21.8418 10.8006 21.7847C10.8005 21.7277 10.7893 21.6712 10.7674 21.6185ZM14.9018 10.0328C14.946 10.1391 15.0305 10.2235 15.1368 10.2677C15.2431 10.3118 15.3626 10.312 15.469 10.2682C15.5755 10.2242 15.6601 10.1397 15.7042 10.0333C15.7484 9.92696 15.7485 9.80739 15.7045 9.70094L15.039 8.09549C14.9937 7.991 14.9091 7.9085 14.8035 7.86575C14.698 7.82301 14.5798 7.82344 14.4746 7.86696C14.3693 7.91047 14.2854 7.99359 14.2408 8.09841C14.1962 8.20323 14.1946 8.32136 14.2363 8.42736L14.9018 10.0328ZM18.7938 10.475C14.483 10.475 10.975 13.983 10.975 18.2937C10.978 19.7485 11.3859 21.1738 12.1531 22.4099C12.9203 23.6459 14.0164 24.644 15.3188 25.2924V29.1531C15.3188 29.2683 15.3645 29.3788 15.446 29.4603C15.5274 29.5417 15.6379 29.5875 15.7531 29.5875H16.1875V30.8906C16.1875 31.0058 16.2333 31.1163 16.3147 31.1978C16.3962 31.2792 16.5067 31.325 16.6219 31.325H17.0563V32.6281C17.0563 32.7433 17.102 32.8538 17.1835 32.9353C17.2649 33.0167 17.3754 33.0625 17.4906 33.0625C17.6058 33.0625 17.7163 33.0167 17.7978 32.9353C17.8792 32.8538 17.925 32.7433 17.925 32.6281V31.325H19.6625V32.6281C19.6625 32.7433 19.7083 32.8538 19.7897 32.9353C19.8712 33.0167 19.9817 33.0625 20.0969 33.0625C20.2121 33.0625 20.3226 33.0167 20.404 32.9353C20.4855 32.8538 20.5313 32.7433 20.5313 32.6281V31.325H20.9656C21.0808 31.325 21.1913 31.2792 21.2728 31.1978C21.3542 31.1163 21.4 31.0058 21.4 30.8906V29.5875H21.8344C21.9496 29.5875 22.0601 29.5417 22.1415 29.4603C22.223 29.3788 22.2688 29.2683 22.2688 29.1531V25.2924C23.5711 24.644 24.6672 23.6459 25.4344 22.4099C26.2016 21.1738 26.6095 19.7485 26.6125 18.2937C26.6125 13.983 23.1045 10.475 18.7938 10.475ZM20.5313 30.4562H17.0563V29.5875H20.5313V30.4562ZM18.3316 25.0908L17.038 21.641C17.045 21.6115 17.0563 21.5837 17.0563 21.5516C17.0563 21.3788 17.1249 21.213 17.2471 21.0908C17.3693 20.9686 17.535 20.9 17.7078 20.9C17.8806 20.9 18.0463 20.9686 18.1685 21.0908C18.2907 21.213 18.3594 21.3788 18.3594 21.5516C18.3594 21.6668 18.4051 21.7773 18.4866 21.8587C18.5681 21.9402 18.6785 21.9859 18.7938 21.9859C18.909 21.9859 19.0194 21.9402 19.1009 21.8587C19.1824 21.7773 19.2281 21.6668 19.2281 21.5516C19.2281 21.3788 19.2968 21.213 19.419 21.0908C19.5412 20.9686 19.7069 20.9 19.8797 20.9C20.0525 20.9 20.2182 20.9686 20.3404 21.0908C20.4626 21.213 20.5313 21.3788 20.5313 21.5516C20.5313 21.5837 20.5425 21.6115 20.5495 21.641L19.2559 25.0908C19.2376 25.1397 19.2282 25.1915 19.2281 25.2437V28.7187H18.3594V25.2437C18.3594 25.1916 18.3498 25.1395 18.3316 25.0908ZM21.6545 24.6217C21.5785 24.6563 21.5141 24.7121 21.4689 24.7823C21.4238 24.8526 21.3999 24.9344 21.4 25.0179V28.7187H20.0969V25.3228L21.3722 21.9217C21.4016 21.8372 21.4035 21.7457 21.3774 21.6602C21.3878 21.6245 21.4 21.5898 21.4 21.5516C21.4 20.7132 20.718 20.0312 19.8797 20.0312C19.454 20.0312 19.07 20.2085 18.7938 20.4908C18.6526 20.3456 18.4838 20.2301 18.2973 20.1511C18.1108 20.0722 17.9103 20.0314 17.7078 20.0312C16.8695 20.0312 16.1875 20.7132 16.1875 21.5516C16.1875 21.5898 16.1997 21.6245 16.2092 21.6602C16.1836 21.7457 16.1854 21.8372 16.2144 21.9217L17.4898 25.3228V28.7187H16.1875V25.0179C16.1874 24.9344 16.1634 24.8527 16.1183 24.7825C16.0732 24.7123 16.0088 24.6565 15.933 24.6217C14.7161 24.0704 13.6836 23.1806 12.9586 22.0586C12.2335 20.9366 11.8465 19.6297 11.8438 18.2937C11.8438 14.4617 14.9617 11.3437 18.7938 11.3437C22.6258 11.3437 25.7438 14.4617 25.7438 18.2937C25.741 19.6297 25.354 20.9366 24.6289 22.0586C23.9039 23.1806 22.8714 24.0704 21.6545 24.6217Z" fill="white"/>
<path d="M18.7938 9.60625C18.909 9.60625 19.0194 9.56049 19.1009 9.47902C19.1824 9.39756 19.2281 9.28708 19.2281 9.17187V7.43437C19.2281 7.31917 19.1824 7.20869 19.1009 7.12723C19.0194 7.04576 18.909 7 18.7938 7C18.6785 7 18.5681 7.04576 18.4866 7.12723C18.4051 7.20869 18.3594 7.31917 18.3594 7.43437V9.17187C18.3594 9.28708 18.4051 9.39756 18.4866 9.47902C18.5681 9.56049 18.6785 9.60625 18.7938 9.60625ZM29.6531 17.8594H27.9156C27.8004 17.8594 27.6899 17.9051 27.6085 17.9866C27.527 18.0681 27.4813 18.1785 27.4813 18.2937C27.4813 18.409 27.527 18.5194 27.6085 18.6009C27.6899 18.6824 27.8004 18.7281 27.9156 18.7281H29.6531C29.7683 18.7281 29.8788 18.6824 29.9603 18.6009C30.0417 18.5194 30.0875 18.409 30.0875 18.2937C30.0875 18.1785 30.0417 18.0681 29.9603 17.9866C29.8788 17.9051 29.7683 17.8594 29.6531 17.8594ZM10.1063 18.2937C10.1063 18.1785 10.0605 18.0681 9.97902 17.9866C9.89756 17.9051 9.78708 17.8594 9.67188 17.8594H7.93438C7.81917 17.8594 7.70869 17.9051 7.62723 17.9866C7.54576 18.0681 7.5 18.1785 7.5 18.2937C7.5 18.409 7.54576 18.5194 7.62723 18.6009C7.70869 18.6824 7.81917 18.7281 7.93438 18.7281H9.67188C9.78708 18.7281 9.89756 18.6824 9.97902 18.6009C10.0605 18.5194 10.1063 18.409 10.1063 18.2937ZM22.1185 10.2674C22.1711 10.2895 22.2277 10.301 22.2848 10.3011C22.3419 10.3012 22.3985 10.29 22.4513 10.2681C22.504 10.2462 22.5519 10.2141 22.5922 10.1735C22.6324 10.133 22.6642 10.0849 22.6858 10.0319L23.3512 8.42649C23.3742 8.37358 23.3864 8.31662 23.3871 8.25895C23.3878 8.20128 23.377 8.14404 23.3553 8.09058C23.3337 8.03712 23.3016 7.98851 23.261 7.94758C23.2204 7.90665 23.172 7.87422 23.1187 7.85218C23.0654 7.83015 23.0082 7.81894 22.9506 7.81923C22.8929 7.81952 22.8358 7.83129 22.7828 7.85386C22.7297 7.87643 22.6816 7.90934 22.6414 7.95068C22.6012 7.99202 22.5696 8.04095 22.5485 8.09463L21.883 9.70007C21.839 9.80652 21.8391 9.92609 21.8833 10.0325C21.9274 10.1389 22.012 10.2233 22.1185 10.2674ZM28.9929 22.0485L27.3874 21.383C27.2814 21.3413 27.1633 21.343 27.0585 21.3875C26.9537 21.4321 26.8705 21.516 26.827 21.6213C26.7835 21.7266 26.7831 21.8447 26.8258 21.9503C26.8686 22.0559 26.9511 22.1404 27.0556 22.1857L28.661 22.8512C28.7137 22.8734 28.7702 22.8848 28.8273 22.8849C28.8845 22.8851 28.9411 22.8739 28.9938 22.852C29.0466 22.8301 29.0945 22.7979 29.1347 22.7574C29.175 22.7168 29.2068 22.6687 29.2283 22.6158C29.2723 22.5093 29.2722 22.3898 29.2281 22.2834C29.1839 22.177 29.0993 22.0925 28.9929 22.0485ZM8.59463 14.539L10.2001 15.2045C10.2527 15.2266 10.3093 15.2381 10.3664 15.2382C10.4235 15.2383 10.4801 15.2271 10.5329 15.2052C10.5857 15.1833 10.6336 15.1512 10.6738 15.1106C10.7141 15.0701 10.7459 15.022 10.7674 14.969C10.8114 14.8626 10.8113 14.743 10.7671 14.6366C10.723 14.5303 10.6384 14.4458 10.5319 14.4018L8.92649 13.7363C8.82049 13.6946 8.70236 13.6962 8.59754 13.7408C8.49272 13.7854 8.4096 13.8693 8.36609 13.9746C8.32257 14.0798 8.32214 14.198 8.36489 14.3035C8.40763 14.4091 8.49014 14.4937 8.59463 14.539ZM25.2442 12.2777C25.3595 12.2777 25.47 12.2321 25.5518 12.1508L26.7802 10.9224C26.8593 10.8405 26.9031 10.7308 26.9021 10.6169C26.9011 10.503 26.8554 10.394 26.7749 10.3135C26.6943 10.233 26.5854 10.1873 26.4715 10.1863C26.3576 10.1853 26.2479 10.2291 26.166 10.3082L24.9376 11.5366C24.877 11.5974 24.8358 11.6747 24.8191 11.7588C24.8024 11.8429 24.811 11.9301 24.8438 12.0094C24.8766 12.0886 24.9321 12.1564 25.0034 12.2041C25.0747 12.2519 25.1584 12.2775 25.2442 12.2777ZM12.0366 24.4367L10.8082 25.6651C10.7268 25.7467 10.681 25.8572 10.6811 25.9725C10.6812 26.0878 10.7271 26.1983 10.8086 26.2797C10.8902 26.3612 11.0008 26.4069 11.116 26.4068C11.2313 26.4067 11.3418 26.3609 11.4233 26.2793L12.6517 25.0509C12.7331 24.9693 12.7788 24.8587 12.7788 24.7435C12.7787 24.6282 12.7328 24.5177 12.6513 24.4362C12.5697 24.3548 12.4591 24.3091 12.3438 24.3092C12.2286 24.3092 12.1181 24.3551 12.0366 24.4367ZM25.5509 24.4367C25.469 24.3576 25.3592 24.3138 25.2453 24.3148C25.1315 24.3158 25.0225 24.3614 24.942 24.442C24.8614 24.5225 24.8158 24.6315 24.8148 24.7453C24.8138 24.8592 24.8576 24.969 24.9367 25.0509L26.1651 26.2793C26.2053 26.32 26.2532 26.3522 26.306 26.3743C26.3588 26.3963 26.4154 26.4076 26.4726 26.4076C26.5298 26.4076 26.5865 26.3963 26.6393 26.3743C26.692 26.3522 26.7399 26.32 26.7802 26.2793C26.8616 26.1978 26.9073 26.0874 26.9073 25.9722C26.9073 25.857 26.8616 25.7466 26.7802 25.6651L25.5509 24.4367ZM12.0366 12.1508C12.0768 12.1915 12.1247 12.2238 12.1775 12.2458C12.2303 12.2678 12.2869 12.2792 12.3442 12.2792C12.4014 12.2792 12.458 12.2678 12.5108 12.2458C12.5636 12.2238 12.6115 12.1915 12.6517 12.1508C12.7331 12.0694 12.7789 11.9589 12.7789 11.8437C12.7789 11.7285 12.7331 11.6181 12.6517 11.5366L11.4233 10.3082C11.3414 10.2291 11.2316 10.1853 11.1177 10.1863C11.0038 10.1873 10.8949 10.233 10.8144 10.3135C10.7338 10.394 10.6881 10.503 10.6872 10.6169C10.6862 10.7308 10.7299 10.8405 10.8091 10.9224L12.0366 12.1508ZM26.8201 14.969C26.8643 15.0753 26.9488 15.1598 27.0552 15.2039C27.1615 15.248 27.281 15.2482 27.3874 15.2045L28.9929 14.539C29.0974 14.4937 29.1799 14.4091 29.2226 14.3035C29.2654 14.198 29.2649 14.0798 29.2214 13.9746C29.1779 13.8693 29.0948 13.7854 28.99 13.7408C28.8851 13.6962 28.767 13.6946 28.661 13.7363L27.0556 14.4018C27.0028 14.4235 26.9548 14.4554 26.9144 14.4956C26.874 14.5359 26.8419 14.5838 26.82 14.6365C26.7982 14.6892 26.7869 14.7457 26.7869 14.8028C26.787 14.8598 26.7982 14.9163 26.8201 14.969ZM10.7674 21.6185C10.723 21.5123 10.6385 21.428 10.5322 21.3839C10.4259 21.3398 10.3066 21.3395 10.2001 21.383L8.59463 22.0485C8.49014 22.0938 8.40763 22.1784 8.36489 22.284C8.32214 22.3895 8.32257 22.5077 8.36609 22.6129C8.4096 22.7182 8.49272 22.8021 8.59754 22.8467C8.70236 22.8913 8.82049 22.8929 8.92649 22.8512L10.5319 22.1857C10.5847 22.164 10.6327 22.1321 10.6731 22.0918C10.7135 22.0516 10.7456 22.0037 10.7675 21.951C10.7893 21.8983 10.8006 21.8418 10.8006 21.7847C10.8005 21.7277 10.7893 21.6712 10.7674 21.6185ZM14.9018 10.0328C14.946 10.1391 15.0305 10.2235 15.1368 10.2677C15.2431 10.3118 15.3626 10.312 15.469 10.2682C15.5755 10.2242 15.6601 10.1397 15.7042 10.0333C15.7484 9.92696 15.7485 9.80739 15.7045 9.70094L15.039 8.09549C14.9937 7.991 14.9091 7.9085 14.8035 7.86575C14.698 7.82301 14.5798 7.82344 14.4746 7.86696C14.3693 7.91047 14.2854 7.99359 14.2408 8.09841C14.1962 8.20323 14.1946 8.32136 14.2363 8.42736L14.9018 10.0328ZM18.7938 10.475C14.483 10.475 10.975 13.983 10.975 18.2937C10.978 19.7485 11.3859 21.1738 12.1531 22.4099C12.9203 23.6459 14.0164 24.644 15.3188 25.2924V29.1531C15.3188 29.2683 15.3645 29.3788 15.446 29.4603C15.5274 29.5417 15.6379 29.5875 15.7531 29.5875H16.1875V30.8906C16.1875 31.0058 16.2333 31.1163 16.3147 31.1978C16.3962 31.2792 16.5067 31.325 16.6219 31.325H17.0563V32.6281C17.0563 32.7433 17.102 32.8538 17.1835 32.9353C17.2649 33.0167 17.3754 33.0625 17.4906 33.0625C17.6058 33.0625 17.7163 33.0167 17.7978 32.9353C17.8792 32.8538 17.925 32.7433 17.925 32.6281V31.325H19.6625V32.6281C19.6625 32.7433 19.7083 32.8538 19.7897 32.9353C19.8712 33.0167 19.9817 33.0625 20.0969 33.0625C20.2121 33.0625 20.3226 33.0167 20.404 32.9353C20.4855 32.8538 20.5313 32.7433 20.5313 32.6281V31.325H20.9656C21.0808 31.325 21.1913 31.2792 21.2728 31.1978C21.3542 31.1163 21.4 31.0058 21.4 30.8906V29.5875H21.8344C21.9496 29.5875 22.0601 29.5417 22.1415 29.4603C22.223 29.3788 22.2688 29.2683 22.2688 29.1531V25.2924C23.5711 24.644 24.6672 23.6459 25.4344 22.4099C26.2016 21.1738 26.6095 19.7485 26.6125 18.2937C26.6125 13.983 23.1045 10.475 18.7938 10.475ZM20.5313 30.4562H17.0563V29.5875H20.5313V30.4562ZM18.3316 25.0908L17.038 21.641C17.045 21.6115 17.0563 21.5837 17.0563 21.5516C17.0563 21.3788 17.1249 21.213 17.2471 21.0908C17.3693 20.9686 17.535 20.9 17.7078 20.9C17.8806 20.9 18.0463 20.9686 18.1685 21.0908C18.2907 21.213 18.3594 21.3788 18.3594 21.5516C18.3594 21.6668 18.4051 21.7773 18.4866 21.8587C18.5681 21.9402 18.6785 21.9859 18.7938 21.9859C18.909 21.9859 19.0194 21.9402 19.1009 21.8587C19.1824 21.7773 19.2281 21.6668 19.2281 21.5516C19.2281 21.3788 19.2968 21.213 19.419 21.0908C19.5412 20.9686 19.7069 20.9 19.8797 20.9C20.0525 20.9 20.2182 20.9686 20.3404 21.0908C20.4626 21.213 20.5313 21.3788 20.5313 21.5516C20.5313 21.5837 20.5425 21.6115 20.5495 21.641L19.2559 25.0908C19.2376 25.1397 19.2282 25.1915 19.2281 25.2437V28.7187H18.3594V25.2437C18.3594 25.1916 18.3498 25.1395 18.3316 25.0908ZM21.6545 24.6217C21.5785 24.6563 21.5141 24.7121 21.4689 24.7823C21.4238 24.8526 21.3999 24.9344 21.4 25.0179V28.7187H20.0969V25.3228L21.3722 21.9217C21.4016 21.8372 21.4035 21.7457 21.3774 21.6602C21.3878 21.6245 21.4 21.5898 21.4 21.5516C21.4 20.7132 20.718 20.0312 19.8797 20.0312C19.454 20.0312 19.07 20.2085 18.7938 20.4908C18.6526 20.3456 18.4838 20.2301 18.2973 20.1511C18.1108 20.0722 17.9103 20.0314 17.7078 20.0312C16.8695 20.0312 16.1875 20.7132 16.1875 21.5516C16.1875 21.5898 16.1997 21.6245 16.2092 21.6602C16.1836 21.7457 16.1854 21.8372 16.2144 21.9217L17.4898 25.3228V28.7187H16.1875V25.0179C16.1874 24.9344 16.1634 24.8527 16.1183 24.7825C16.0732 24.7123 16.0088 24.6565 15.933 24.6217C14.7161 24.0704 13.6836 23.1806 12.9586 22.0586C12.2335 20.9366 11.8465 19.6297 11.8438 18.2937C11.8438 14.4617 14.9617 11.3437 18.7938 11.3437C22.6258 11.3437 25.7438 14.4617 25.7438 18.2937C25.741 19.6297 25.354 20.9366 24.6289 22.0586C23.9039 23.1806 22.8714 24.0704 21.6545 24.6217Z" stroke="white" stroke-width="0.676216" mask="url(#path-2-outside-1_2505_4034)"/>
</g>
</g>
</svg>
