<svg xmlns="http://www.w3.org/2000/svg" viewBox="0 0 178.04306 130.68733"><defs><style>.cls-1{font-size:10.07898px;}.cls-1,.cls-2,.cls-3,.cls-4,.cls-7{fill:#fff;}.cls-1,.cls-2,.cls-7{font-family:Montserrat-SemiBold, Montserrat;font-weight:600;}.cls-2{font-size:13.31093px;}.cls-3{fill-rule:evenodd;}.cls-5,.cls-6{fill:none;stroke:#fff;stroke-width:2.553px;}.cls-5{stroke-miterlimit:10;}.cls-6{stroke-linecap:round;stroke-linejoin:round;}.cls-7{font-size:11.95164px;}</style></defs><g id="Layer_2" data-name="Layer 2"><g id="Layer_2-2" data-name="Layer 2"><text class="cls-1" transform="translate(33.41666 55.58922)">04/01/2023 Wed</text><text class="cls-2" transform="translate(33.49674 71.28062)">13:30 - 15:30</text><path class="cls-3" d="M14.99526,49.53827V50.6074a1.09479,1.09479,0,0,1-2.03771.45271,1.1269,1.1269,0,0,1-.10059-.45271V49.53827H9.65061a1.11489,1.11489,0,0,1-.808-1.769.94091.94091,0,0,1,.808-.36923q1.60211,0,3.20635-.00962V46.33193a.93116.93116,0,0,1,.0535-.335,1.09446,1.09446,0,0,1,1.037-.73416,1.068,1.068,0,0,1,1.04778,1.06914v1.04559c2.13716-.01284,4.2754-.02461,6.41377-.01392V46.33193a1.06647,1.06647,0,0,1,1.04765-1.06914h.04173a1.06649,1.06649,0,0,1,1.04778,1.06914v1.05094l1.14836.0182a3.29515,3.29515,0,0,1,3.12717,3.16674q.061,9.65916,0,19.32051A3.30467,3.30467,0,0,1,24.655,73.05509q-10.7284.06583-21.45772,0A3.28962,3.28962,0,0,1,.0305,69.88832q-.061-9.66084,0-19.32051A3.28578,3.28578,0,0,1,3.23364,47.4H4.306V46.33193a.90748.90748,0,0,1,.0535-.335,1.09409,1.09409,0,0,1,1.036-.73416,1.06654,1.06654,0,0,1,1.04773,1.06914V50.6074a1.095,1.095,0,0,1-2.01841.49123A1.10855,1.10855,0,0,1,4.306,50.6074V49.534q-.548-.00428-1.0959.00428a1.10819,1.10819,0,0,0-1.04238,1.04238q-.179,9.646,0,19.29367a1.10733,1.10733,0,0,0,1.04238,1.04239q10.71508.19914,21.432,0a1.10812,1.10812,0,0,0,1.04239-1.04239q.17834-9.64468,0-19.29367a1.10755,1.10755,0,0,0-1.07228-1.04238h-1.066V50.6074a1.09829,1.09829,0,0,1-2.0184.49123,1.1236,1.1236,0,0,1-.11876-.49123V49.53827Zm-9.6212,17.103a1.07,1.07,0,1,1-.73479.32488,1.06965,1.06965,0,0,1,.73479-.32488Zm4.27655,0a1.07027,1.07027,0,1,1-.726.32879A1.07077,1.07077,0,0,1,9.65061,66.64132Zm4.27547,0a1.07013,1.07013,0,1,1-.72563.32946,1.07016,1.07016,0,0,1,.72563-.32946Zm-8.552-4.27554a1.06908,1.06908,0,1,1-.734.32462,1.06779,1.06779,0,0,1,.734-.32462Zm4.27655,0a1.0687,1.0687,0,1,1-.75562.313,1.06831,1.06831,0,0,1,.75562-.313Zm4.27547,0a1.0703,1.0703,0,1,1-.73477.325A1.06942,1.06942,0,0,1,13.92608,62.36578Zm4.27553,0a1.07031,1.07031,0,1,1-.73487.325A1.06983,1.06983,0,0,1,18.20161,62.36578Zm4.2754,0a1.06916,1.06916,0,1,1-.73393.32462,1.06742,1.06742,0,0,1,.73393-.32462ZM9.65061,58.0903a1.06809,1.06809,0,1,1-.75524.31284A1.06783,1.06783,0,0,1,9.65061,58.0903Zm4.27547,0a1.07022,1.07022,0,1,1-.72563.32951,1.0698,1.0698,0,0,1,.72563-.32951Zm4.27553,0a1.07,1.07,0,1,1-.72572.32951,1.0702,1.0702,0,0,1,.72572-.32951Zm4.2754,0a1.06875,1.06875,0,1,1-.40891.08156A1.06906,1.06906,0,0,1,22.477,58.0903Z"/><path class="cls-4" d="M13.72621,124.08223a.97691.97691,0,0,0,.606-.21511c.37147-.33231,10.14608-8.21067,10.14608-16.40174a10.75208,10.75208,0,1,0-21.50416,0c0,8.19107,9.7746,16.06943,10.146,16.40174A.97693.97693,0,0,0,13.72621,124.08223ZM4.92907,107.46538a8.79715,8.79715,0,0,1,17.59429,0c0,6.158-6.71519,12.52132-8.79715,14.35884C11.64422,119.9867,4.92907,113.62342,4.92907,107.46538Z"/><path class="cls-4" d="M18.61176,107.4654a4.88745,4.88745,0,1,0-1.4315,3.45579A4.88765,4.88765,0,0,0,18.61176,107.4654Zm-7.81971,0a2.93233,2.93233,0,1,1,.85887,2.07349A2.93244,2.93244,0,0,1,10.79205,107.4654Z"/><text class="cls-1" transform="translate(33.60319 102.10289)">Usukdar University<tspan x="0" y="12.09473">Merkez A-Block </tspan><tspan x="0" y="24.18945">Nermin Tarhan 4th floor</tspan></text><path class="cls-5" d="M13.72621,16.39376a7.55863,7.55863,0,1,0-7.5586-7.55863A7.55863,7.55863,0,0,0,13.72621,16.39376Z"/><path class="cls-6" d="M3.99812,23.00644A12.42621,12.42621,0,0,1,8.1102,18.16555a9.7863,9.7863,0,0,1,11.23214.00012,12.42649,12.42649,0,0,1,4.112,4.841"/><text class="cls-7" transform="translate(34.25822 23.02769)">Ola Ahmad</text><text class="cls-1" transform="translate(34.61759 8.83433)">Our Speaker:</text></g></g></svg>